<?xml version="1.0" encoding="UTF-8" standalone="no" ?><!DOCTYPE svg PUBLIC "-//W3C//DTD SVG 1.1//EN" "http://www.w3.org/Graphics/SVG/1.1/DTD/svg11.dtd">
<svg xmlns="http://www.w3.org/2000/svg" xmlns:xlink="http://www.w3.org/1999/xlink" version="1.1" width="800" height="400" xml:space="preserve"><desc>Created with Fabric.js 1.6.0-rc.1</desc><defs></defs><g style="stroke: black; stroke-width: 1; stroke-dasharray: none; stroke-linecap: butt; stroke-linejoin: miter; stroke-miterlimit: 10; fill: none; fill-rule: nonzero; opacity: 1;" transform="translate(366 62) scale(1.76 1.76)" >
<circle cx="110" cy="72" r="17" style="stroke: #000; stroke-width: 1; stroke-dasharray: none; stroke-linecap: butt; stroke-linejoin: miter; stroke-miterlimit: 10; fill: none; fill-rule: evenodd; opacity: 1;" transform="  matrix(1 0 0 1 -92 -54) "/>
</g>
<g style="stroke: black; stroke-width: 1; stroke-dasharray: none; stroke-linecap: butt; stroke-linejoin: miter; stroke-miterlimit: 10; fill: none; fill-rule: nonzero; opacity: 1;" transform="translate(364.89000000000004 57.91666666666666) scale(1.79 1.92)" >
<polygon points="178,55 195,89 161,89 " style="stroke: #000; stroke-width: 1; stroke-dasharray: none; stroke-linecap: butt; stroke-linejoin: miter; stroke-miterlimit: 10; fill: none; fill-rule: evenodd; opacity: 1;" transform="  matrix(1 0 0 1 -160 -55) "/>
</g>
<path d="M 46.13 128.34 Q 46.13 132.28 45.7 135.66 Q 45.28 139.03 43.45 142.55 Q 41.63 146.06 37.41 148.45 Q 33.19 150.84 26.16 150.84 Q 19.13 150.84 14.91 148.73 Q 10.69 146.63 8.72 143.25 Q 6.75 139.88 6.19 136.36 Q 5.63 132.84 5.63 128.34 L 5.63 98.53 L 12.66 98.53 L 12.66 128.06 Q 12.66 132.84 13.22 136.22 Q 13.78 139.59 16.73 142.13 Q 19.69 144.66 25.59 144.66 Q 31.5 144.66 34.59 142.55 Q 37.69 140.44 38.53 137.06 Q 39.38 133.69 39.38 128.06 L 39.38 98.53 L 46.13 98.53 L 46.13 128.34 Z M 92.25 104.44 L 64.41 104.44 L 64.41 120.47 L 88.59 120.47 L 88.59 126.66 L 64.41 126.66 L 64.41 150 L 57.66 150 L 57.66 98.53 L 92.25 98.53 L 92.25 104.44 Z M 143.72 150 L 136.13 150 L 129.94 134.25 L 108.56 134.25 L 102.66 150 L 95.63 150 L 115.31 98.53 L 122.63 98.53 L 143.72 150 M 127.97 128.91 Q 121.5 112.03 120.8 109.78 Q 120.09 107.53 118.97 103.88 L 118.69 103.88 Q 117.84 108.94 116.16 113.44 L 110.53 128.91 L 127.97 128.91 Z M 192.66 133.69 Q 190.41 142.41 184.78 146.63 Q 179.16 150.84 171.28 150.84 Q 158.63 150.84 152.86 142.97 Q 147.09 135.09 147.09 123.84 Q 147.09 111.47 153.84 104.58 Q 160.59 97.69 171.28 97.69 Q 178.88 97.69 184.22 101.48 Q 189.56 105.28 191.81 112.59 L 185.06 114.28 Q 183.38 108.94 180 106.13 Q 176.63 103.31 171.28 103.31 Q 162.84 103.31 158.48 108.94 Q 154.13 114.56 154.13 123.84 Q 154.13 134.53 158.77 139.73 Q 163.41 144.94 170.72 144.94 Q 176.91 144.94 180.56 141.7 Q 184.22 138.47 185.91 132 L 192.66 133.69 Z M 237.66 104.44 L 220.5 104.44 L 220.5 150 L 213.75 150 L 213.75 104.44 L 196.88 104.44 L 196.88 98.53 L 237.66 98.53 L 237.66 104.44 Z M 267.19 97.69 Q 277.88 97.69 284.77 105 Q 291.66 112.31 291.66 124.41 Q 291.66 136.22 284.77 143.53 Q 277.88 150.84 267.19 150.84 Q 255.94 150.84 249.19 143.25 Q 242.44 135.66 242.44 124.97 Q 242.44 112.03 249.33 104.86 Q 256.22 97.69 267.19 97.69 M 267.19 144.94 Q 275.06 144.94 279.84 139.45 Q 284.63 133.97 284.63 124.41 Q 284.63 114.28 279.7 108.8 Q 274.78 103.31 267.19 103.31 Q 259.59 103.31 254.53 108.66 Q 249.47 114 249.47 124.97 Q 249.47 133.97 254.39 139.45 Q 259.31 144.94 267.19 144.94 Z M 346.22 150 L 337.78 150 Q 329.91 137.91 328.08 135.09 Q 326.25 132.28 324.14 130.31 Q 322.03 128.34 320.2 127.78 Q 318.38 127.22 315.56 127.22 L 307.69 127.22 L 307.69 150 L 300.94 150 L 300.94 98.53 L 323.72 98.53 Q 328.22 98.53 331.45 99.09 Q 334.69 99.66 337.08 101.63 Q 339.47 103.59 340.73 106.41 Q 342 109.22 342 112.59 Q 342 118.5 338.34 122.02 Q 334.69 125.53 327.66 126.38 L 327.66 126.66 Q 332.72 128.91 337.22 135.94 L 346.22 150 M 307.69 121.03 L 322.31 121.03 Q 326.81 121.03 329.34 120.33 Q 331.88 119.63 333.42 117.38 Q 334.97 115.13 334.97 112.59 Q 334.97 108.94 332.44 106.55 Q 329.91 104.16 324 104.16 L 307.69 104.16 L 307.69 121.03 Z M 394.31 98.53 L 373.78 128.06 L 373.78 150 L 367.03 150 L 367.03 128.06 L 347.06 98.53 L 355.5 98.53 L 366.75 115.69 Q 368.44 118.5 370.97 122.72 Q 372.38 119.91 386.44 98.53 L 394.31 98.53 Z" style="stroke: black; stroke-width: 1; stroke-dasharray: none; stroke-linecap: butt; stroke-linejoin: miter; stroke-miterlimit: 10; fill: black; fill-rule: nonzero; opacity: 1;" transform="translate(397.98 155.23) scale(0.89 0.89) translate(-199.97, -124.265) " stroke-linecap="round" />
</svg>